<?xml version="1.0" encoding="UTF-8"?> <svg xmlns="http://www.w3.org/2000/svg" width="59" height="59" viewBox="0 0 59 59"><defs><style> .cls-1 { fill: #3b3b3b; } </style></defs><g id="Group_3315" data-name="Group 3315" transform="translate(-604 -946)"><g id="Group_1196" data-name="Group 1196" transform="translate(604 946)"><g id="Group_1195" data-name="Group 1195"><path id="Path_6001" data-name="Path 6001" class="cls-1" d="M55.067,0H3.933A3.933,3.933,0,0,0,0,3.933V55.067A3.933,3.933,0,0,0,3.933,59H55.067A3.933,3.933,0,0,0,59,55.067V3.933A3.933,3.933,0,0,0,55.067,0Zm1.967,55.067a1.967,1.967,0,0,1-1.967,1.967H3.933a1.967,1.967,0,0,1-1.967-1.967V9.833H57.033Zm0-47.2H1.967V3.933A1.967,1.967,0,0,1,3.933,1.967H55.067a1.967,1.967,0,0,1,1.967,1.967Z"></path></g></g><g id="Group_1198" data-name="Group 1198" transform="translate(612.85 958.783)"><g id="Group_1197" data-name="Group 1197"><path id="Path_6002" data-name="Path 6002" class="cls-1" d="M112.317,120.717h-3.425a16.5,16.5,0,0,0-1.973-4.774l2.419-2.418a.983.983,0,0,0,0-1.39l-4.172-4.172a1.012,1.012,0,0,0-1.39,0l-2.418,2.419a16.5,16.5,0,0,0-4.774-1.973v-3.425A.983.983,0,0,0,95.6,104H89.7a.983.983,0,0,0-.983.983v3.425a16.5,16.5,0,0,0-4.774,1.973l-2.418-2.419a.983.983,0,0,0-1.39,0l-4.172,4.172a.983.983,0,0,0,0,1.39l2.419,2.418a16.5,16.5,0,0,0-1.973,4.774H72.983A.983.983,0,0,0,72,121.7v5.9a.983.983,0,0,0,.983.983h3.425a16.5,16.5,0,0,0,1.973,4.774l-2.419,2.418a.983.983,0,0,0,0,1.39l4.172,4.172a1.012,1.012,0,0,0,1.39,0l2.418-2.419a16.5,16.5,0,0,0,4.774,1.973v3.425a.983.983,0,0,0,.983.983h5.9a.983.983,0,0,0,.983-.983v-3.425a16.5,16.5,0,0,0,4.774-1.973l2.418,2.419a.983.983,0,0,0,1.39,0l4.172-4.172a.983.983,0,0,0,0-1.39l-2.419-2.418a16.5,16.5,0,0,0,1.973-4.774h3.425a.983.983,0,0,0,.983-.983v-5.9A.983.983,0,0,0,112.317,120.717Zm-.983,5.9H108.1a.983.983,0,0,0-.966.8,14.6,14.6,0,0,1-2.281,5.522.983.983,0,0,0,.117,1.248l2.285,2.284-2.782,2.782-2.282-2.285a.983.983,0,0,0-1.248-.117,14.6,14.6,0,0,1-5.522,2.281.983.983,0,0,0-.8.966v3.236H90.683V140.1a.983.983,0,0,0-.8-.966,14.6,14.6,0,0,1-5.522-2.281.983.983,0,0,0-1.248.117l-2.284,2.285-2.782-2.782,2.285-2.282a.983.983,0,0,0,.117-1.248,14.6,14.6,0,0,1-2.281-5.522.983.983,0,0,0-.966-.8H73.967v-3.933H77.2a.983.983,0,0,0,.966-.8,14.6,14.6,0,0,1,2.281-5.522.983.983,0,0,0-.117-1.248l-2.285-2.284,2.782-2.782,2.282,2.285a.983.983,0,0,0,1.248.117,14.6,14.6,0,0,1,5.522-2.281.983.983,0,0,0,.8-.966v-3.236h3.933V109.2a.983.983,0,0,0,.8.966,14.6,14.6,0,0,1,5.522,2.281.983.983,0,0,0,1.248-.117l2.284-2.285,2.782,2.782-2.285,2.282a.983.983,0,0,0-.117,1.248,14.6,14.6,0,0,1,2.281,5.522.983.983,0,0,0,.966.8h3.236Z" transform="translate(-72 -104)"></path></g></g><g id="Group_1200" data-name="Group 1200" transform="translate(620.717 966.65)"><g id="Group_1199" data-name="Group 1199"><path id="Path_6003" data-name="Path 6003" class="cls-1" d="M148.783,168a12.783,12.783,0,1,0,12.783,12.783A12.783,12.783,0,0,0,148.783,168Zm0,23.6A10.817,10.817,0,1,1,159.6,180.783,10.817,10.817,0,0,1,148.783,191.6Z" transform="translate(-136 -168)"></path></g></g><g id="Group_1202" data-name="Group 1202" transform="translate(624.65 975.696)"><g id="Group_1201" data-name="Group 1201"><path id="Path_6004" data-name="Path 6004" class="cls-1" d="M173.506,243.173l-1.18-1.573-3.933,2.95a.983.983,0,0,0,0,1.573l3.933,2.95,1.18-1.573-2.884-2.163Z" transform="translate(-167.999 -241.6)"></path></g></g><g id="Group_1204" data-name="Group 1204" transform="translate(636.844 975.696)"><g id="Group_1203" data-name="Group 1203"><path id="Path_6005" data-name="Path 6005" class="cls-1" d="M272.51,244.747a.987.987,0,0,0-.2-.2l-3.933-2.95-1.18,1.573,2.884,2.163L267.2,247.5l1.18,1.573,3.933-2.95A.983.983,0,0,0,272.51,244.747Z" transform="translate(-267.2 -241.6)"></path></g></g><g id="Group_1206" data-name="Group 1206" transform="translate(630.619 974.157)"><g id="Group_1205" data-name="Group 1205"><rect id="Rectangle_1306" data-name="Rectangle 1306" class="cls-1" width="10.591" height="1.967" transform="translate(0 9.832) rotate(-68.191)"></rect></g></g></g></svg> 