<?xml version="1.0" encoding="UTF-8"?> <!-- Generator: Adobe Illustrator 23.1.0, SVG Export Plug-In . SVG Version: 6.00 Build 0) --> <svg xmlns="http://www.w3.org/2000/svg" xmlns:xlink="http://www.w3.org/1999/xlink" version="1.1" id="Capa_1" x="0px" y="0px" viewBox="0 0 512 512" style="enable-background:new 0 0 512 512;" xml:space="preserve"> <style type="text/css"> .st0{fill:#3B3B3B;} </style> <g id="XMLID_1033_"> <g id="XMLID_49_"> <path id="XMLID_69_" class="st0" d="M299.6,252.9c9-10.2,14.4-23.6,14.4-38.2v-9.6c0-32-26-58-58-58s-58,26-58,58v9.6 c0,14.6,5.5,28,14.4,38.2c-34.9,2.7-62.4,31.9-62.4,67.4v34.5c0,5.5,4.5,10,10,10h192c5.5,0,10-4.5,10-10v-34.5 C362,284.8,334.4,255.6,299.6,252.9L299.6,252.9z M218,205.1c0-21,17-38,38-38s38,17,38,38v9.6c0,21-17,38-38,38s-38-17-38-38 V205.1z M342,344.9H170v-24.5c0-26.3,21.4-47.6,47.6-47.6h76.7c26.3,0,47.6,21.4,47.6,47.6v24.5H342z"></path> <path id="XMLID_72_" class="st0" d="M415.8,405.8c-2.6,0-5.2,1.1-7.1,2.9c-1.9,1.9-2.9,4.4-2.9,7.1c0,2.6,1.1,5.2,2.9,7.1 c1.9,1.9,4.5,2.9,7.1,2.9s5.2-1.1,7.1-2.9s2.9-4.4,2.9-7.1c0-2.6-1.1-5.2-2.9-7.1C421,406.9,418.4,405.8,415.8,405.8z"></path> <path id="XMLID_75_" class="st0" d="M502,246h-10.2c-2.5-59.3-26.7-114.7-68.9-156.9S325.3,22.7,266,20.2V10c0-5.5-4.5-10-10-10 s-10,4.5-10,10v10.2c-59.3,2.5-114.7,26.7-156.9,68.9S22.7,186.7,20.2,246H10c-5.5,0-10,4.5-10,10s4.5,10,10,10h10.2 c2.5,59.3,26.7,114.7,68.9,156.9s97.6,66.4,156.9,68.9V502c0,5.5,4.5,10,10,10s10-4.5,10-10v-10.2c43.1-1.8,84.6-15.2,120.5-39.1 c4.6-3.1,5.8-9.3,2.8-13.9s-9.3-5.8-13.9-2.8c-32.6,21.7-70.3,34-109.5,35.8v-24c97.9-5,176.7-83.8,181.7-181.7h24 c-1.8,39.2-14.1,76.8-35.8,109.5c-3.1,4.6-1.8,10.8,2.8,13.9c4.6,3.1,10.8,1.8,13.9-2.8c23.9-35.9,37.3-77.4,39.1-120.5H502 c5.5,0,10-4.5,10-10C512,250.5,507.5,246,502,246L502,246z M471.8,246h-24c-5-97.9-83.8-176.7-181.7-181.7v-24 C377.2,45.3,466.7,134.8,471.8,246z M246,40.2v24c-97.9,5-176.7,83.8-181.7,181.7h-24C45.3,134.8,134.8,45.3,246,40.2z M40.2,266 h24c5,97.9,83.8,176.7,181.7,181.7v24C134.8,466.7,45.3,377.2,40.2,266z M266,427.7v-28.8c0-5.5-4.5-10-10-10s-10,4.5-10,10v28.8 c-86.9-5-156.7-74.8-161.7-161.7h28.8c5.5,0,10-4.5,10-10s-4.5-10-10-10H84.3c5-86.9,74.8-156.7,161.7-161.7v28.8 c0,5.5,4.5,10,10,10s10-4.5,10-10V84.3c86.9,5,156.7,74.8,161.7,161.7h-28.8c-5.5,0-10,4.5-10,10s4.5,10,10,10h28.8 C422.7,352.9,352.9,422.7,266,427.7z"></path> </g> </g> </svg> 