<?xml version="1.0" encoding="UTF-8"?> <svg xmlns="http://www.w3.org/2000/svg" width="58.722" height="58.74" viewBox="0 0 58.722 58.74"><defs><style> .cls-1 { fill: #3b3b3b; } </style></defs><g id="Group_3314" data-name="Group 3314" transform="translate(-270.947 -945)"><path id="Path_6013" data-name="Path 6013" class="cls-1" d="M79.774,442.309a2.582,2.582,0,1,0-2.582-2.582A2.585,2.585,0,0,0,79.774,442.309Zm0-3.443a.861.861,0,1,1-.86.861A.862.862,0,0,1,79.774,438.866Zm0,0" transform="translate(202.555 558.008)"></path><path id="Path_6014" data-name="Path 6014" class="cls-1" d="M336.205,236.078H317.269v12.05h18.936Zm-1.721,10.329H318.991V237.8h15.493Zm0,0" transform="translate(-9.979 736.007)"></path><path id="Path_6015" data-name="Path 6015" class="cls-1" d="M59.221,47.819V0H11.594V19.051H3.082A2.585,2.585,0,0,0,.5,21.633v34.43a2.585,2.585,0,0,0,2.582,2.582H20.3a2.585,2.585,0,0,0,2.582-2.582V39.135H33.973V27.085H22.879V25.363h32.9V9.87H15.037v9.181H13.315V8.11H57.5V46.1h-21l-11.571,4.61L36.5,55.317h21V58.74h1.721V53.6H38.614l2.623-2.888-2.623-2.888ZM21.158,56.063a.861.861,0,0,1-.86.86H3.082a.862.862,0,0,1-.861-.86V48.546H21.158ZM11.881,37.519a4.1,4.1,0,0,1,4.093,4.093v5.212H7.787V41.612a4.1,4.1,0,0,1,4.093-4.093Zm-2.611-4.3A2.582,2.582,0,1,1,11.852,35.8,2.585,2.585,0,0,1,9.27,33.215Zm11.888,13.61H17.7V41.612a5.819,5.819,0,0,0-3.059-5.119,4.3,4.3,0,1,0-5.546.019,5.819,5.819,0,0,0-3.024,5.1v5.212H2.221V27.543H21.158ZM32.252,28.806v8.608H22.879V28.806ZM16.758,11.591h37.3v12.05H22.879V21.633A2.585,2.585,0,0,0,20.3,19.051H16.758ZM20.3,20.772a.862.862,0,0,1,.86.861v4.189H2.221V21.633a.862.862,0,0,1,.861-.861ZM32.366,51.815l-2.781-1.108L32.366,49.6Zm6.546-1.108-2.478,2.728L34.088,52.5V48.913l2.347-.934ZM57.5,6.388H13.315V1.721H57.5Zm0,0" transform="translate(270.447 945)"></path><path id="Path_6016" data-name="Path 6016" class="cls-1" d="M44.684,195.566H46.4v1.721H44.684Zm0,0" transform="translate(231.333 771.871)"></path><path id="Path_6017" data-name="Path 6017" class="cls-1" d="M74.691,195.566h9.181v1.721H74.691Zm0,0" transform="translate(204.768 771.871)"></path><path id="Path_6021" data-name="Path 6021" class="cls-1" d="M352.449,117.371h11.285v1.722H352.449Zm0,0" transform="translate(-41.123 841.095)"></path><path id="Path_6022" data-name="Path 6022" class="cls-1" d="M304.766,147.047h13.313v1.722H304.766Zm0,0" transform="translate(1.089 814.823)"></path><path id="Path_6023" data-name="Path 6023" class="cls-1" d="M435.809,147.047h1.722v1.722h-1.722Zm0,0" transform="translate(-114.92 814.823)"></path><path id="Path_6024" data-name="Path 6024" class="cls-1" d="M324.773,177.059h14.461v1.721H324.773Zm0,0" transform="translate(-16.623 788.254)"></path><path id="Path_6025" data-name="Path 6025" class="cls-1" d="M264.754,177.059h1.721v1.721h-1.721Zm0,0" transform="translate(36.511 788.254)"></path><path id="Path_6026" data-name="Path 6026" class="cls-1" d="M294.766,177.059h1.721v1.721h-1.721Zm0,0" transform="translate(9.941 788.254)"></path><path id="Path_6027" data-name="Path 6027" class="cls-1" d="M437.145,357.117h1.721v1.722h-1.721Zm0,0" transform="translate(-116.103 628.854)"></path><path id="Path_6028" data-name="Path 6028" class="cls-1" d="M347.113,357.117h1.721v1.722h-1.721Zm0,0" transform="translate(-36.399 628.854)"></path><path id="Path_6029" data-name="Path 6029" class="cls-1" d="M377.125,357.117h1.721v1.722h-1.721Zm0,0" transform="translate(-62.969 628.854)"></path><path id="Path_6030" data-name="Path 6030" class="cls-1" d="M407.133,357.117h1.722v1.722h-1.722Zm0,0" transform="translate(-89.534 628.854)"></path></g></svg> 