<?xml version="1.0" encoding="UTF-8"?> <svg xmlns="http://www.w3.org/2000/svg" width="59" height="59.899" viewBox="0 0 59 59.899"><defs><style> .cls-1 { fill: #3b3b3b; } </style></defs><g id="jigsaw" transform="translate(-3.658 0)"><g id="Group_3317" data-name="Group 3317" transform="translate(3.658)"><g id="Group_3316" data-name="Group 3316"><path id="Path_12579" data-name="Path 12579" class="cls-1" d="M45.941,0h-35.4A6.892,6.892,0,0,0,3.658,6.883V42.2a6.892,6.892,0,0,0,6.883,6.883H21.358V47.118H10.541A4.923,4.923,0,0,1,5.625,42.2V25.567H11.94a1.058,1.058,0,0,0,.9-1.459,3.933,3.933,0,1,1,7.2,0,1.02,1.02,0,0,0,.9,1.459h6.315v5.9a5.756,5.756,0,0,0-.983-.082,5.9,5.9,0,0,0-2.36,11.308l.787-1.8a3.933,3.933,0,0,1,1.573-7.54,3.885,3.885,0,0,1,1.573.332.983.983,0,0,0,1.377-.9V25.567h5a5.756,5.756,0,0,0-.084.983,5.917,5.917,0,0,0,4.72,5.782l.393-1.926a3.946,3.946,0,0,1-3.147-3.856,3.885,3.885,0,0,1,.332-1.573.983.983,0,0,0-.9-1.377H29.225v-5a5.756,5.756,0,0,0,.983.084,5.9,5.9,0,0,0,0-11.8,5.757,5.757,0,0,0-.983.084v-5H45.941a4.923,4.923,0,0,1,4.917,4.917V23.6H44.543a.983.983,0,0,0-.9,1.377,3.885,3.885,0,0,1,.332,1.573h1.967a5.756,5.756,0,0,0-.084-.983h5.984a.983.983,0,0,0,.983-.983V6.883A6.892,6.892,0,0,0,45.941,0ZM30.208,8.85a3.933,3.933,0,1,1,0,7.867,3.885,3.885,0,0,1-1.573-.332.983.983,0,0,0-1.377.9v6.233H22.265a5.742,5.742,0,0,0,.077-.9v-.082a5.9,5.9,0,1,0-11.8,0v.082a5.742,5.742,0,0,0,.077.9H5.625V6.883a4.923,4.923,0,0,1,4.917-4.917H27.258V8.282a.983.983,0,0,0,1.377.9A3.885,3.885,0,0,1,30.208,8.85Z" transform="translate(-3.658)"></path></g></g><g id="Group_3319" data-name="Group 3319" transform="translate(22.821 27.449)"><g id="Group_3318" data-name="Group 3318"><path id="Path_12580" data-name="Path 12580" class="cls-1" d="M197.3,238.133l-8.267-5.693-3.175-8.483a.983.983,0,0,0-1.265-.579l-.054.022-6.392,2.827a.983.983,0,0,0-.521,1.251c.106.275.206.484.311.7a7.5,7.5,0,0,1,.322.738,3.935,3.935,0,1,1-7.605,1.182.983.983,0,0,0-1.329-.972l-6.832,2.573a.983.983,0,0,0-.574,1.265l2.452,6.552a5.542,5.542,0,0,0-.954.264,5.913,5.913,0,1,0,5.04,10.65l1.758,4.7a.983.983,0,0,0,1.266.576h0l9.743-3.671a5.28,5.28,0,0,0,3.114,2.781l.621-1.868a3.316,3.316,0,0,1-1.88-1.607l2.965-1.116a6.863,6.863,0,0,0,6.475,4.564v-1.967A4.947,4.947,0,0,1,187.6,247.9a.983.983,0,0,0-.288-.7l-3.424-3.424a1.458,1.458,0,0,1-.135-1.9,1.432,1.432,0,0,1,1.057-.576,1.41,1.41,0,0,1,1.129.422L192.8,248.6l1.39-1.39-2.032-2.032a6.86,6.86,0,0,0-.088-4.6l-1.843-4.922,5.942,4.092a2.956,2.956,0,0,1,1.258,2.417v12.7H199.4v-12.7A4.925,4.925,0,0,0,197.3,238.133Zm-7.062,3.135a4.928,4.928,0,0,1,.287,2.265l-3.192-3.191a3.417,3.417,0,1,0-4.893,4.771l.061.061,3.11,3.11-13.9,5.234-1.874-5.008a.983.983,0,0,0-.707-.615,1,1,0,0,0-.213-.024.984.984,0,0,0-.688.28,3.933,3.933,0,1,1-4.118-6.528,3.784,3.784,0,0,1,.973-.22,3.492,3.492,0,0,1,.617-.021.983.983,0,0,0,.973-1.327L164.1,233.2l4.683-1.763a5.9,5.9,0,1,0,11.315-3.2c-.09-.242-.172-.434-.251-.6l4.523-2Z" transform="translate(-159.563 -223.316)"></path></g></g></g></svg> 