<?xml version="1.0" encoding="UTF-8"?> <!-- Generator: Adobe Illustrator 23.1.0, SVG Export Plug-In . SVG Version: 6.00 Build 0) --> <svg xmlns="http://www.w3.org/2000/svg" xmlns:xlink="http://www.w3.org/1999/xlink" version="1.1" id="_014---Website-Optimisation" x="0px" y="0px" viewBox="0 0 80 80" style="enable-background:new 0 0 80 80;" xml:space="preserve"> <style type="text/css"> .st0{fill:#2352F7;} </style> <path id="Shape" class="st0" d="M40,58.7c5.2,0,9.3-4.2,9.3-9.3S45.2,40,40,40s-9.3,4.2-9.3,9.3c0,0,0,0,0,0 C30.7,54.5,34.8,58.7,40,58.7z M40,42.7c3.7,0,6.7,3,6.7,6.7c0,3.7-3,6.7-6.7,6.7s-6.7-3-6.7-6.7C33.3,45.7,36.3,42.7,40,42.7 L40,42.7z"></path> <path id="Shape-2" class="st0" d="M11.1,45.8c-1,0.3-1.7,1.1-1.8,2.1c0,0.5,0,0.9,0,1.4c0,0.5,0,0.9,0,1.4c0.1,1,0.8,1.9,1.8,2.1 l4.7,1.2c0.2,1.1,0.5,2.2,0.9,3.3l-3.5,3.4c-0.7,0.7-0.9,1.8-0.5,2.8c0.2,0.4,0.4,0.8,0.7,1.2c0.2,0.4,0.5,0.8,0.7,1.2 c0.6,0.9,1.6,1.3,2.6,1l4.7-1.3c0.8,0.9,1.6,1.7,2.4,2.4l-1.3,4.7c-0.3,1,0.1,2.1,1,2.6c0.4,0.2,0.8,0.5,1.2,0.7 c0.4,0.2,0.8,0.4,1.2,0.7c0.9,0.5,2,0.3,2.8-0.5l3.4-3.5c1.1,0.4,2.2,0.7,3.3,0.9l1.2,4.7c0.3,1,1.1,1.7,2.1,1.8c0.5,0,0.9,0,1.4,0 s0.9,0,1.4,0c1-0.1,1.9-0.8,2.1-1.8l1.2-4.7c1.1-0.2,2.2-0.5,3.3-0.9l3.4,3.5c0.7,0.7,1.8,0.9,2.8,0.5c0.4-0.2,0.8-0.4,1.2-0.7 c0.4-0.2,0.8-0.5,1.2-0.7c0.9-0.6,1.3-1.6,1-2.6l-1.3-4.7c0.9-0.8,1.7-1.6,2.4-2.4l4.7,1.3c1,0.3,2.1-0.1,2.6-1 c0.2-0.4,0.5-0.8,0.7-1.2c0.2-0.4,0.4-0.8,0.7-1.2c0.5-0.9,0.3-2-0.5-2.8l-3.5-3.4c0.4-1.1,0.7-2.2,0.9-3.3l4.7-1.2 c1-0.3,1.7-1.1,1.8-2.1c0-0.5,0-0.9,0-1.4s0-0.9,0-1.4c-0.1-1-0.8-1.9-1.8-2.1l-4.7-1.2c-0.2-1.1-0.5-2.2-0.9-3.3l3.5-3.4 c0.7-0.7,0.9-1.8,0.5-2.8c-0.2-0.4-0.4-0.8-0.7-1.2c-0.2-0.4-0.5-0.8-0.7-1.2c-0.6-0.9-1.6-1.3-2.6-1l-4.7,1.3 c-0.8-0.9-1.6-1.7-2.4-2.4l1.3-4.7c0.3-1-0.1-2.1-1-2.6c-0.4-0.2-0.8-0.5-1.2-0.7c-0.4-0.2-0.8-0.4-1.2-0.7c-0.9-0.5-2-0.3-2.8,0.5 L48,26.1c-1.1-0.4-2.2-0.7-3.3-0.9l-1.2-4.7c-0.3-1-1.1-1.7-2.1-1.8c-0.9,0-1.8,0-2.7,0c-1,0.1-1.9,0.8-2.1,1.8l-1.2,4.7 c-1.1,0.2-2.2,0.5-3.3,0.9l-3.4-3.5c-0.7-0.7-1.8-0.9-2.8-0.5c-0.4,0.2-0.8,0.4-1.2,0.7c-0.4,0.2-0.8,0.5-1.2,0.7 c-0.9,0.6-1.3,1.6-1,2.6l1.3,4.7c-0.9,0.8-1.7,1.6-2.4,2.4l-4.7-1.3c-1-0.3-2.1,0.1-2.6,1c-0.2,0.4-0.5,0.8-0.7,1.2 c-0.2,0.4-0.4,0.8-0.7,1.2c-0.5,0.9-0.3,2,0.5,2.8l3.5,3.4c-0.4,1.1-0.7,2.2-0.9,3.3L11.1,45.8z M18.4,45.3c0.2-1.1,0.5-2.2,0.9-3.3 c0.3-0.9,0.1-1.8-0.6-2.5l-3.5-3.4c0.2-0.3,0.3-0.6,0.5-0.9c0.2-0.3,0.3-0.6,0.5-0.8l4.7,1.3c0.9,0.2,1.8,0,2.4-0.7 c0.8-0.9,1.6-1.7,2.4-2.4c0.7-0.6,1-1.5,0.7-2.4l-1.3-4.7c0.3-0.2,0.6-0.3,0.8-0.5c0.3-0.2,0.6-0.3,0.9-0.5l3.4,3.5 c0.6,0.7,1.6,0.9,2.5,0.6c1.1-0.4,2.2-0.7,3.3-0.9c0.9-0.2,1.6-0.8,1.9-1.7l1.2-4.7c0.7,0,1.3,0,2,0l1.2,4.7c0.2,0.9,1,1.6,1.9,1.7 c1.1,0.2,2.2,0.5,3.3,0.9c0.9,0.3,1.8,0.1,2.5-0.6l3.4-3.5c0.3,0.2,0.6,0.3,0.9,0.5s0.6,0.3,0.8,0.5l-1.3,4.7 c-0.2,0.9,0,1.8,0.7,2.4c0.9,0.7,1.7,1.6,2.4,2.4c0.6,0.7,1.5,1,2.4,0.7l4.7-1.3c0.2,0.3,0.3,0.6,0.5,0.8c0.2,0.3,0.3,0.6,0.5,0.9 l-3.5,3.4c-0.7,0.6-0.9,1.6-0.6,2.5c0.4,1.1,0.7,2.2,0.9,3.3c0.2,0.9,0.8,1.6,1.7,1.9l4.7,1.2c0,0.3,0,0.7,0,1c0,0.3,0,0.7,0,1 l-4.7,1.2c-0.9,0.2-1.6,1-1.7,1.9c-0.2,1.1-0.5,2.2-0.9,3.3c-0.3,0.9-0.1,1.8,0.6,2.5l3.5,3.4c-0.2,0.3-0.3,0.6-0.5,0.9 c-0.2,0.3-0.3,0.6-0.5,0.8l-4.7-1.3c-0.9-0.2-1.8,0-2.4,0.7c-0.7,0.9-1.6,1.7-2.4,2.4c-0.7,0.6-1,1.5-0.7,2.4l1.3,4.7 c-0.3,0.2-0.6,0.3-0.8,0.5c-0.3,0.2-0.6,0.3-0.9,0.5l-3.4-3.5c-0.6-0.7-1.6-0.9-2.5-0.6c-1.1,0.4-2.2,0.7-3.3,0.9 c-0.9,0.2-1.6,0.8-1.9,1.7L41,77.3c-0.7,0-1.3,0-2,0l-1.2-4.7c-0.2-0.9-1-1.6-1.9-1.7c-1.1-0.2-2.2-0.5-3.3-0.9 c-0.9-0.3-1.8-0.1-2.5,0.6l-3.4,3.5c-0.3-0.2-0.6-0.3-0.9-0.5s-0.6-0.3-0.8-0.5l1.3-4.7c0.2-0.9,0-1.8-0.7-2.4 c-0.9-0.7-1.7-1.6-2.4-2.4c-0.6-0.7-1.5-1-2.4-0.7l-4.7,1.3c-0.2-0.3-0.3-0.6-0.5-0.8c-0.2-0.3-0.3-0.6-0.5-0.9l3.5-3.4 c0.7-0.6,0.9-1.6,0.6-2.5c-0.4-1.1-0.7-2.2-0.9-3.3c-0.2-0.9-0.8-1.6-1.7-1.9L12,50.3c0-0.3,0-0.7,0-1c0-0.3,0-0.7,0-1l4.7-1.2 C17.6,46.9,18.3,46.2,18.4,45.3L18.4,45.3z"></path> <path id="Shape-3" class="st0" d="M73.3,0H6.7C3,0,0,3,0,6.7V60c0,3.7,3,6.7,6.7,6.7h2.7c0.7,0,1.3-0.6,1.3-1.3 c0-0.7-0.6-1.3-1.3-1.3H6.7c-2.2,0-4-1.8-4-4l0,0V13.3h74.7V60c0,2.2-1.8,4-4,4h-2.7c-0.7,0-1.3,0.6-1.3,1.3c0,0.7,0.6,1.3,1.3,1.3 h2.7c3.7,0,6.7-3,6.7-6.7V6.7C80,3,77,0,73.3,0z M29.3,10.7V9.3c0-0.7,0.6-1.3,1.3-1.3h18.7c0.7,0,1.3,0.6,1.3,1.3c0,0,0,0,0,0v1.3 H29.3z M53.3,10.7V9.3c0-2.2-1.8-4-4-4l0,0H30.7c-2.2,0-4,1.8-4,4v1.3h-24v-4c0-2.2,1.8-4,4-4h66.7c2.2,0,4,1.8,4,4v4H53.3z"></path> <path id="Path" class="st0" d="M8,5.3H6.7c-0.7,0-1.3,0.6-1.3,1.3S5.9,8,6.7,8H8c0.7,0,1.3-0.6,1.3-1.3C9.3,5.9,8.7,5.3,8,5.3z"></path> <path id="Path-2" class="st0" d="M14.7,5.3h-1.3c-0.7,0-1.3,0.6-1.3,1.3S12.6,8,13.3,8h1.3C15.4,8,16,7.4,16,6.7S15.4,5.3,14.7,5.3 L14.7,5.3z"></path> <path id="Path-3" class="st0" d="M21.3,5.3H20c-0.7,0-1.3,0.6-1.3,1.3S19.3,8,20,8h1.3c0.7,0,1.3-0.6,1.3-1.3S22.1,5.3,21.3,5.3 L21.3,5.3z"></path> <path id="Path-4" class="st0" d="M73.3,5.3H68c-0.7,0-1.3,0.6-1.3,1.3S67.3,8,68,8l0,0h5.3c0.7,0,1.3-0.6,1.3-1.3S74.1,5.3,73.3,5.3 z"></path> <path id="Path-5" class="st0" d="M28.1,62.1c7.2,6.4,18.1,5.7,24.5-1.4c6.1-6.9,5.8-17.4-0.8-23.9c-0.5-0.5-1.4-0.5-1.9,0.1 c-0.5,0.5-0.5,1.4,0.1,1.9l0,0c5.9,5.5,6.2,14.8,0.7,20.7s-14.8,6.2-20.7,0.7s-6.2-14.8-0.7-20.7c3.6-3.8,8.9-5.5,14-4.3 c0.7,0.1,1.4-0.4,1.5-1.1c0.1-0.7-0.3-1.3-1-1.5c-9.3-2.1-18.6,3.7-20.8,13C21.7,51.6,23.6,57.9,28.1,62.1z"></path> </svg> 