<?xml version="1.0" encoding="UTF-8"?> <!-- Generator: Adobe Illustrator 23.1.0, SVG Export Plug-In . SVG Version: 6.00 Build 0) --> <svg xmlns="http://www.w3.org/2000/svg" xmlns:xlink="http://www.w3.org/1999/xlink" version="1.1" id="website-design" x="0px" y="0px" viewBox="0 0 79.8 79.8" style="enable-background:new 0 0 79.8 79.8;" xml:space="preserve"> <style type="text/css"> .st0{fill:#2352F7;} </style> <path id="Shape" class="st0" d="M66.5,43.4V6.7c0-3.7-3-6.7-6.7-6.7H6.7C3,0,0,3,0,6.6l0,0v55.9c0,3.7,3,6.7,6.7,6.7h37.7 c4.4,9.3,15.5,13.2,24.8,8.8c9.3-4.4,13.2-15.5,8.8-24.8C75.8,48.4,71.6,44.9,66.5,43.4z M6.7,2.7h53.2c2.2,0,4,1.8,4,4v4H45.2V9.3 c0-2.2-1.8-4-4-4h-16c-2.2,0-4,1.8-4,4v1.3H2.7v-4C2.7,4.5,4.4,2.7,6.7,2.7C6.6,2.7,6.6,2.7,6.7,2.7z M42.6,10.6H23.9V9.3 c0-0.7,0.6-1.3,1.3-1.3h16c0.7,0,1.3,0.6,1.3,1.3l0,0L42.6,10.6L42.6,10.6z M6.7,66.5c-2.2,0-4-1.8-4-4V13.3h61.2v29.5 c-0.9-0.1-1.8-0.2-2.7-0.2c-0.5,0-0.9,0-1.3,0.1V21.3c0-2.2-1.8-4-4-4H26.6c-0.7,0-1.3,0.6-1.3,1.3s0.6,1.3,1.3,1.3l0,0h29.3 c0.7,0,1.3,0.6,1.3,1.3l0,0V43c-3.4,0.8-6.5,2.4-9,4.9h-8.3c0-0.2,0-0.4-0.1-0.6l-2-9.3c-0.1-0.3-0.2-0.6-0.3-0.8v-0.1 c-0.2-0.4-0.4-0.7-0.7-1L21.9,21.2l-2.8-2.8c-1.6-1.6-4.1-1.6-5.6,0l0,0L7.9,24c-1.6,1.6-1.6,4.1,0,5.6l0,0l2.8,2.8l14.8,14.8 c0.2,0.2,0.5,0.4,0.7,0.5H10.6c-0.7,0-1.3-0.6-1.3-1.3l0,0v-8c0-0.7-0.6-1.3-1.3-1.3s-1.3,0.6-1.3,1.3v8c0,2.2,1.8,4,4,4H46 c-3.3,4.6-4.2,10.5-2.6,16L6.7,66.5z M15.3,26l-3.8,3.8l-1.9-1.9c-0.5-0.5-0.5-1.4,0-1.9l5.6-5.6c0.2-0.2,0.6-0.4,0.9-0.4 c0.4,0,0.7,0.1,0.9,0.4l1.9,1.9L15.3,26z M16.3,28.8l10.6,10.6c0.5,0.5,1.4,0.5,1.9,0s0.5-1.3,0-1.8L18.2,26.9l2.8-2.8l13.4,13.4 L26.9,45L13.5,31.6L16.3,28.8z M35.5,40.2l1.7,7.7l-7.7-1.7L35.5,40.2z M61.2,77.2c-8.8,0-16-7.1-16-16s7.1-16,16-16s16,7.1,16,16 C77.2,70,70,77.1,61.2,77.2L61.2,77.2z"></path> <path id="Path" class="st0" d="M6.7,8H8c0.7,0,1.3-0.6,1.3-1.3S8.7,5.3,8,5.3l0,0H6.7C6,5.3,5.4,5.9,5.4,6.6S5.9,8,6.7,8z"></path> <path id="Path_11976" class="st0" d="M13.3,8h1.3c0.7,0,1.3-0.6,1.3-1.3s-0.6-1.3-1.3-1.3h-1.3C12.6,5.4,12,6,12,6.7S12.6,8,13.3,8z "></path> <path id="Path_11977" class="st0" d="M54.5,8h5.3c0.7,0,1.3-0.6,1.3-1.3s-0.6-1.3-1.3-1.3h-5.3c-0.7,0-1.3,0.6-1.3,1.3 S53.8,8,54.5,8z"></path> <g id="Group_3042" transform="translate(51.724 49.433)"> <g id="_x34_5_Notification"> <g id="Group_3041"> <path id="Path_11978" class="st0" d="M16.7,12.4H16c-0.7,0-1.3,0.6-1.3,1.3c0,0.7,0.6,1.3,1.3,1.3l0,0h0.6c0.6,0,1.2,0.6,1.3,1.2 c0,0.6-0.6,1.2-1.2,1.3h-0.1H2.2c-0.6,0-1.2-0.6-1.3-1.2c0-0.6,0.6-1.2,1.2-1.3h0.1c1,0,1.7-0.8,1.7-1.7V7.1 C3.8,4,6.3,1.6,9.3,1.5c3-0.1,5.5,2.4,5.6,5.4c0,0.1,0,0.1,0,0.2v2.2c0,0.7,0.6,1.3,1.3,1.3c0.6,0,1.3-0.6,1.3-1.3V7.1 c0-4.4-3.6-8-8-8s-8,3.6-8,8l0,0v5.3c-2,0.4-3.3,2.4-2.9,4.4c0.4,1.7,1.8,2.9,3.7,2.9h2.5c0,2.7,2.2,4.8,4.9,4.7 c2.6,0,4.7-2.1,4.7-4.7h2.5c2,0,3.7-1.7,3.7-3.8C20.5,14.1,18.7,12.4,16.7,12.4L16.7,12.4z M9.4,22.1c-1.3,0-2.3-1-2.3-2.3h4.6 C11.7,21.1,10.7,22.1,9.4,22.1L9.4,22.1z"></path> </g> </g> </g> </svg> 