<?xml version="1.0" encoding="UTF-8"?> <!-- Generator: Adobe Illustrator 23.1.0, SVG Export Plug-In . SVG Version: 6.00 Build 0) --> <svg xmlns="http://www.w3.org/2000/svg" xmlns:xlink="http://www.w3.org/1999/xlink" version="1.1" id="Warstwa_1" x="0px" y="0px" viewBox="0 0 80 80" style="enable-background:new 0 0 80 80;" xml:space="preserve"> <style type="text/css"> .st0{fill:#2352F7;} </style> <g id="_x34_74_x2C__Cells_x2C__Column_x2C__Insert"> <path class="st0" d="M78,13.1c-1.6,0-34.8,0-36.4,0V2c0-0.9-0.7-1.6-1.6-1.6H21c-0.9,0-1.6,0.7-1.6,1.6v11.1H2 c-0.9,0-1.6,0.7-1.6,1.6V78c0,0.9,0.7,1.6,1.6,1.6h19c0.9,0,1.6-0.7,1.6-1.6V63.7h6.3v10.4l-0.5-0.5c-0.6-0.6-1.6-0.6-2.2,0 c-0.6,0.6-0.6,1.6,0,2.2c3.2,3.2,3.2,3.2,3.3,3.3c0.5,0.4,1.3,0.5,1.9,0.1c0.2-0.1,0,0,3.4-3.4c0.6-0.6,0.6-1.6,0-2.2 c-0.6-0.6-1.6-0.6-2.2,0l-0.5,0.5V63.7h6.3V78c0,0.9,0.7,1.6,1.6,1.6h38c0.9,0,1.6-0.7,1.6-1.6c0-13.5,0-50.2,0-63.3 C79.6,13.8,78.9,13.1,78,13.1z M76.4,44.7H60.6V32.1h15.8V44.7z M57.4,44.7H41.6V32.1h15.8V44.7z M41.6,47.9h15.8v12.7H41.6V47.9z M60.6,47.9h15.8v12.7H60.6V47.9z M76.4,28.9H60.6V16.3h15.8V28.9z M57.4,16.3v12.7H41.6V16.3H57.4z M3.6,60.6V47.9h15.8v12.7H3.6z M19.4,44.7H3.6V32.1h15.8V44.7z M3.6,16.3h15.8v12.7H3.6V16.3z M19.4,76.4H3.6V63.7h15.8V76.4z M30.5,51.1c-0.9,0-1.6,0.7-1.6,1.6 v7.9h-6.3c0-2.3,0-54.6,0-57h15.8v57h-6.3v-7.9C32.1,51.8,31.4,51.1,30.5,51.1z M41.6,63.7h15.8v12.7H41.6V63.7z M76.4,76.4H60.6 V63.7h15.8V76.4z"></path> </g> </svg> 