<?xml version="1.0" encoding="UTF-8"?> <svg xmlns="http://www.w3.org/2000/svg" width="61" height="58.971" viewBox="0 0 61 58.971"><defs><style> .cls-1 { fill: #3b3b3b; } </style></defs><g id="Group_2725" data-name="Group 2725" transform="translate(-448 -746.994)"><g id="accessible" transform="translate(448 746.995)"><path id="Path_6211" data-name="Path 6211" class="cls-1" d="M73.572,145.072v-1.79H58.113v30.44h6.625v-1.79H59.9V145.072Zm0,0" transform="translate(-51.19 -126.211)"></path><path id="Path_6212" data-name="Path 6212" class="cls-1" d="M19.826,107.679a2.689,2.689,0,0,1,2.686-2.686H43.743V103.2H22.512a4.481,4.481,0,0,0-4.477,4.476v18.5h1.791Zm0,0" transform="translate(-15.887 -90.907)"></path><path id="Path_6213" data-name="Path 6213" class="cls-1" d="M61,11.212V4.477A4.482,4.482,0,0,0,56.523,0H52.174V1.791h4.349a2.688,2.688,0,0,1,2.686,2.686V7.162h-18.5V4.477a2.689,2.689,0,0,1,2.686-2.686h6.992V0H43.392a4.482,4.482,0,0,0-4.477,4.477V12.3H29.647v1.79h9.268v2.985H24.173v1.79H38.915V37.9a4.482,4.482,0,0,0,4.477,4.477h8.893V45.72H15.339v1.79H54.076V42.378h2.447a4.443,4.443,0,0,0,.537-.034V50.5H38.08v.9a.777.777,0,0,1-.776.776H23.7a.777.777,0,0,1-.776-.776v-.9H9.933v1.79H21.29A2.57,2.57,0,0,0,23.7,53.957H37.3a2.57,2.57,0,0,0,2.405-1.671h19.5v2.209a2.689,2.689,0,0,1-2.686,2.686H4.476a2.689,2.689,0,0,1-2.686-2.686V52.286H8.143V50.5h-4.2V37.066H2.148V50.5H0v4A4.481,4.481,0,0,0,4.476,58.97H56.523A4.481,4.481,0,0,0,61,54.494v-4H58.851V41.723A4.478,4.478,0,0,0,61,37.9V13H59.209v16.84h-18.5V8.953h18.5v2.259ZM59.209,31.634V37.9a2.689,2.689,0,0,1-2.686,2.686H43.392A2.689,2.689,0,0,1,40.706,37.9V31.634Zm0,0"></path><path id="Path_6214" data-name="Path 6214" class="cls-1" d="M402.145,280.547h-5.372v5.372h5.372Zm-1.791,3.581h-1.79v-1.79h1.79Zm0,0" transform="translate(-349.502 -247.122)"></path><path id="Path_6215" data-name="Path 6215" class="cls-1" d="M148.373,196.425a8.058,8.058,0,1,0-8.058,8.058A8.067,8.067,0,0,0,148.373,196.425Zm-8.058,6.267a6.267,6.267,0,1,1,6.267-6.267A6.274,6.274,0,0,1,140.315,202.692Zm0,0" transform="translate(-116.5 -165.925)"></path><path id="Path_6216" data-name="Path 6216" class="cls-1" d="M356.7,107.656a7.461,7.461,0,1,0,7.461-7.461A7.47,7.47,0,0,0,356.7,107.656Zm13.131,0a5.67,5.67,0,1,1-5.67-5.67A5.677,5.677,0,0,1,369.826,107.656Zm0,0" transform="translate(-314.198 -88.258)"></path><path id="Path_6217" data-name="Path 6217" class="cls-1" d="M369.223,30.059h1.79v1.791h-1.79Zm0,0" transform="translate(-325.234 -26.477)"></path><path id="Path_6218" data-name="Path 6218" class="cls-1" d="M454.387,30.059h1.791v1.791h-1.791Zm0,0" transform="translate(-400.251 -26.477)"></path><path id="Path_6219" data-name="Path 6219" class="cls-1" d="M399.281,30.059h4.775v1.791h-4.775Zm0,0" transform="translate(-351.711 -26.477)"></path><path id="Path_6220" data-name="Path 6220" class="cls-1" d="M192.375,338.66h1.791v1.791h-1.791Zm0,0" transform="translate(-169.456 -298.312)"></path><path id="Path_6221" data-name="Path 6221" class="cls-1" d="M222.434,338.66h1.791v1.791h-1.791Zm0,0" transform="translate(-195.933 -298.312)"></path><path id="Path_6222" data-name="Path 6222" class="cls-1" d="M162.316,338.66h1.791v1.791h-1.791Zm0,0" transform="translate(-142.978 -298.312)"></path><path id="Path_6223" data-name="Path 6223" class="cls-1" d="M37.574,451.883h4.775v1.79H37.574Zm0,0" transform="translate(-33.098 -398.045)"></path><path id="Path_6224" data-name="Path 6224" class="cls-1" d="M92.68,451.883h1.791v1.79H92.68Zm0,0" transform="translate(-81.638 -398.045)"></path><path id="Path_6225" data-name="Path 6225" class="cls-1" d="M166.536,235.029l-1.754-1.755-1.266,1.266,3.02,3.02,5.647-5.647-1.266-1.266Zm0,0" transform="translate(-144.034 -203.169)"></path><path id="Path_6226" data-name="Path 6226" class="cls-1" d="M386.215,141.618l-1.266,1.266,3.02,3.02,5.169-5.169-1.266-1.266-3.9,3.9Zm0,0" transform="translate(-339.086 -122.852)"></path></g></g></svg> 