<?xml version="1.0" encoding="UTF-8"?> <!-- Generator: Adobe Illustrator 25.2.3, SVG Export Plug-In . SVG Version: 6.00 Build 0) --> <svg xmlns="http://www.w3.org/2000/svg" xmlns:xlink="http://www.w3.org/1999/xlink" version="1.1" id="Warstwa_1" x="0px" y="0px" viewBox="0 0 74.6 70.5" style="enable-background:new 0 0 74.6 70.5;" xml:space="preserve"> <style type="text/css"> .st0{fill:#3B3B3B;} </style> <g id="Group_3198"> <g id="Group_3197"> <path id="Path_12307" class="st0" d="M65.6,49.4v-42c0-3.9-3.1-7-7-7c-3.9,0-7,3.1-7,7H3.9c-0.6,0-1.2,0.5-1.2,1.2c0,0,0,0,0,0 v39.6c0,0.6,0.5,1.2,1.2,1.2c0,0,0,0,0,0h48.9c3.2,0,5.8-2.6,5.8-5.8V8.6c0-0.6-0.5-1.2-1.2-1.2c0,0,0,0,0,0H54 c0-2.6,2.1-4.7,4.7-4.7c2.6,0,4.7,2.1,4.7,4.7c0,0,0,0,0,0v42c-4,0.6-7,4-7,8.1v4.7c0,4.5,3.7,8.2,8.2,8.2c4.5,0,8.2-3.7,8.2-8.2 v-4.7C72.6,53.4,69.7,50,65.6,49.4z M56.3,43.5c0,1.9-1.6,3.5-3.5,3.5H5.1v-28h51.3V43.5z M56.3,9.7v7H5.1v-7L56.3,9.7z M70.3,62.2c0,3.2-2.6,5.8-5.8,5.8c-3.2,0-5.8-2.6-5.8-5.8v-4.7c0-3.2,2.6-5.8,5.8-5.8c3.2,0,5.8,2.6,5.8,5.8V62.2z"></path> </g> </g> <g id="Group_3200" transform="translate(175 159)"> <g id="Group_3199" transform="translate(0 0)"> <rect id="Rectangle_1688" x="-111.8" y="-103.6" class="st0" width="2.4" height="3.5"></rect> </g> </g> <g id="Group_3202" transform="translate(14 34)"> <g id="Group_3201" transform="translate(0 0)"> <rect id="Rectangle_1689" x="-6.4" y="-21.8" class="st0" width="2.1" height="2.4"></rect> </g> </g> <g id="Group_3204" transform="translate(27 34)"> <g id="Group_3203" transform="translate(0 0)"> <rect id="Rectangle_1690" x="-14.9" y="-21.8" class="st0" width="2.4" height="2.4"></rect> </g> </g> <g id="Group_3206" transform="translate(41 34)"> <g id="Group_3205" transform="translate(0 0)"> <rect id="Rectangle_1691" x="-24.1" y="-21.8" class="st0" width="2.1" height="2.4"></rect> </g> </g> <g id="Group_3208" transform="translate(33.69 60.64)"> <g id="Group_3207"> <path id="Path_12308" class="st0" d="M12.6-33.4l-15.1-5.8c-0.3-0.1-0.6-0.1-0.8,0l-15.1,5.8c-0.6,0.2-0.9,0.9-0.7,1.5 c0.1,0.3,0.4,0.5,0.7,0.7l0.4,0.2v13.9h2.3v-13l2.3,0.9v8.6c0,0.5,0.3,0.9,0.8,1.1l9.3,3.5c0.3,0.1,0.6,0.1,0.8,0l9.3-3.5 c0.5-0.2,0.8-0.6,0.8-1.1v-8.6l5.1-2c0.6-0.2,0.9-0.9,0.7-1.5C13.1-33,12.9-33.2,12.6-33.4L12.6-33.4z M5.2-21.4L-3-18.4l-8.2-3.1 v-6.9l7.7,3c0.3,0.1,0.6,0.1,0.8,0l7.7-3L5.2-21.4z M-3-27.7l-11.9-4.6L-3-36.8l11.9,4.6L-3-27.7z"></path> </g> </g> </svg> 